<?xml version="1.0" encoding="UTF-8" standalone="no"?>
<svg
   xmlns:dc="http://purl.org/dc/elements/1.1/"
   xmlns:cc="http://creativecommons.org/ns#"
   xmlns:rdf="http://www.w3.org/1999/02/22-rdf-syntax-ns#"
   xmlns:svg="http://www.w3.org/2000/svg"
   xmlns="http://www.w3.org/2000/svg"
   xmlns:sodipodi="http://sodipodi.sourceforge.net/DTD/sodipodi-0.dtd"
   xmlns:inkscape="http://www.inkscape.org/namespaces/inkscape"
   version="1.2"
   x="0px"
   y="0px"
   viewBox="0 0 100 100"
   xml:space="preserve"
   id="svg8"
   sodipodi:docname="female.svg"
   width="100"
   height="100"
   inkscape:version="1.0.2 (e86c870879, 2021-01-15, custom)"><metadata
     id="metadata14"><rdf:RDF><cc:Work
         rdf:about=""><dc:format>image/svg+xml</dc:format><dc:type
           rdf:resource="http://purl.org/dc/dcmitype/StillImage" /><dc:title></dc:title></cc:Work></rdf:RDF></metadata><defs
     id="defs12" /><sodipodi:namedview
     pagecolor="#ffffff"
     bordercolor="#666666"
     borderopacity="1"
     objecttolerance="10"
     gridtolerance="10"
     guidetolerance="10"
     inkscape:pageopacity="0"
     inkscape:pageshadow="2"
     inkscape:window-width="1920"
     inkscape:window-height="1017"
     id="namedview10"
     showgrid="false"
     inkscape:zoom="6.8"
     inkscape:cx="50"
     inkscape:cy="50.735294"
     inkscape:window-x="-8"
     inkscape:window-y="-8"
     inkscape:window-maximized="1"
     inkscape:current-layer="svg8"
     inkscape:document-rotation="0" /><path
     d="m 49.264706,4.3235295 c -19.250098,0 -34.911765,14.5467445 -34.911765,32.4264685 0,16.307041 13.028322,29.835828 29.92437,32.090626 v 9.600551 h -9.97479 v 9.264706 h 9.97479 v 9.264706 h 9.97479 v -9.264706 h 9.97479 v -9.264706 h -9.97479 V 68.840624 C 71.148148,66.585826 84.17647,53.057039 84.17647,36.749998 84.17647,18.870274 68.514803,4.3235295 49.264706,4.3235295 Z m 0,55.5882335 c -13.750248,0 -24.936975,-10.390367 -24.936975,-23.161765 0,-12.771397 11.186727,-23.161764 24.936975,-23.161764 13.750248,0 24.936974,10.390367 24.936974,23.161764 0,12.771398 -11.186726,23.161765 -24.936974,23.161765 z"
     id="path2"
     style="stroke-width:1.20165" /></svg>
