<?xml version="1.0" encoding="UTF-8" standalone="no"?>
<svg
   xmlns:dc="http://purl.org/dc/elements/1.1/"
   xmlns:cc="http://creativecommons.org/ns#"
   xmlns:rdf="http://www.w3.org/1999/02/22-rdf-syntax-ns#"
   xmlns:svg="http://www.w3.org/2000/svg"
   xmlns="http://www.w3.org/2000/svg"
   xmlns:sodipodi="http://sodipodi.sourceforge.net/DTD/sodipodi-0.dtd"
   xmlns:inkscape="http://www.inkscape.org/namespaces/inkscape"
   viewBox="0 0 100 100"
   version="1.1"
   x="0px"
   y="0px"
   id="svg14"
   sodipodi:docname="male.svg"
   width="100"
   height="100"
   inkscape:version="1.0.2 (e86c870879, 2021-01-15, custom)">
  <metadata
     id="metadata20">
    <rdf:RDF>
      <cc:Work
         rdf:about="">
        <dc:format>image/svg+xml</dc:format>
        <dc:type
           rdf:resource="http://purl.org/dc/dcmitype/StillImage" />
        <dc:title>icon/male-solid</dc:title>
      </cc:Work>
    </rdf:RDF>
  </metadata>
  <defs
     id="defs18" />
  <sodipodi:namedview
     pagecolor="#ffffff"
     bordercolor="#666666"
     borderopacity="1"
     objecttolerance="10"
     gridtolerance="10"
     guidetolerance="10"
     inkscape:pageopacity="0"
     inkscape:pageshadow="2"
     inkscape:window-width="1920"
     inkscape:window-height="1017"
     id="namedview16"
     showgrid="false"
     inkscape:zoom="3.5416666"
     inkscape:cx="-20.109765"
     inkscape:cy="37.065648"
     inkscape:window-x="-8"
     inkscape:window-y="-8"
     inkscape:window-maximized="1"
     inkscape:current-layer="svg14"
     inkscape:document-rotation="0" />
  <title
     id="title2">icon/male-solid</title>
  <desc
     id="desc4">Created with Sketch.</desc>
  <g
     stroke="none"
     stroke-width="1"
     fill="none"
     fill-rule="evenodd"
     id="g8"
     transform="matrix(4.8901961,0,0,4.9851994,-9.059602,-9.411234)">
    <path
       d="m 13.5352,17.5342 c -1.949,1.949 -5.121,1.949 -7.07,0 -0.945,-0.944 -1.465,-2.2 -1.465,-3.535 0,-1.336 0.52,-2.592 1.465,-3.536 0.974,-0.975 2.255,-1.462 3.535,-1.462 1.28,0 2.56,0.487 3.535,1.462 0.944,0.944 1.465,2.2 1.465,3.536 0,1.335 -0.521,2.591 -1.465,3.535 z m 0.465,-14.535 v 2 h 3.586 l -3.401,3.399 c -2.739,-2.049 -6.646,-1.838 -9.134,0.651 -1.323,1.321 -2.051,3.08 -2.051,4.95 0,1.869 0.728,3.628 2.051,4.949 1.364,1.365 3.156,2.047 4.949,2.047 1.792,0 3.585,-0.683 4.949,-2.047 1.322,-1.321 2.051,-3.08 2.051,-4.949 0,-1.532 -0.496,-2.985 -1.4,-4.188 l 3.4,-3.398 v 3.586 h 2 v -7 z"
       fill="#000000"
       id="path6" />
  </g>
</svg>
